<svg width="256" height="256" viewBox="0 0 256 256" fill="none" xmlns="http://www.w3.org/2000/svg">
<rect width="256" height="256" fill="url(#paint0_linear)"/>
<g filter="url(#filter0_d)">
<path d="M64.336 105H94.352V105C93.7648 109.184 90.1854 112.296 85.9605 112.296H71.376L69.84 123.432H90.64L89.616 130.728H68.816L67.088 143.016H90.192L89.168 150.312H58L64.336 105Z" fill="url(#paint1_linear)"/>
<path d="M122.053 138.648C122.309 136.792 122.869 135.112 123.733 133.608C124.629 132.104 125.733 130.824 127.045 129.768C128.357 128.68 129.845 127.848 131.509 127.272C133.173 126.696 134.901 126.408 136.693 126.408C138.485 126.408 140.133 126.696 141.637 127.272C143.141 127.848 144.405 128.68 145.429 129.768C146.453 130.824 147.189 132.104 147.637 133.608C148.117 135.112 148.229 136.792 147.973 138.648C147.717 140.504 147.141 142.184 146.245 143.688C145.349 145.192 144.245 146.488 142.933 147.576C141.621 148.632 140.133 149.448 138.469 150.024C136.805 150.6 135.077 150.888 133.285 150.888C131.493 150.888 129.845 150.6 128.341 150.024C126.837 149.448 125.573 148.632 124.549 147.576C123.557 146.488 122.821 145.192 122.341 143.688C121.893 142.184 121.797 140.504 122.053 138.648ZM129.253 138.648C128.997 140.408 129.285 141.832 130.117 142.92C130.981 144.008 132.325 144.552 134.149 144.552C135.973 144.552 137.461 144.008 138.613 142.92C139.797 141.832 140.517 140.408 140.773 138.648C141.029 136.888 140.725 135.464 139.861 134.376C138.997 133.288 137.653 132.744 135.829 132.744C134.005 132.744 132.517 133.288 131.365 134.376C130.213 135.464 129.509 136.888 129.253 138.648Z" fill="url(#paint2_linear)"/>
<path d="M153.846 126.984H160.758L160.326 130.152H160.422C160.71 129.704 161.094 129.256 161.574 128.808C162.054 128.36 162.598 127.96 163.206 127.608C163.814 127.256 164.502 126.968 165.27 126.744C166.038 126.52 166.854 126.408 167.718 126.408C169.542 126.408 170.982 126.696 172.038 127.272C173.094 127.816 173.862 128.584 174.342 129.576C174.822 130.568 175.078 131.736 175.11 133.08C175.142 134.424 175.046 135.88 174.822 137.448L173.046 150.312H165.846L167.43 138.888C167.526 138.216 167.606 137.528 167.67 136.824C167.734 136.088 167.686 135.416 167.526 134.808C167.366 134.2 167.062 133.704 166.614 133.32C166.166 132.936 165.478 132.744 164.55 132.744C163.622 132.744 162.838 132.92 162.198 133.272C161.59 133.592 161.094 134.04 160.71 134.616C160.326 135.16 160.038 135.784 159.846 136.488C159.654 137.192 159.51 137.928 159.414 138.696L157.782 150.312H150.582L153.846 126.984Z" fill="url(#paint3_linear)"/>
<path d="M193.648 133.848C192.784 132.536 191.472 131.88 189.712 131.88C189.104 131.88 188.496 132.024 187.888 132.312C187.28 132.6 186.928 133.096 186.832 133.8C186.736 134.376 186.976 134.808 187.552 135.096C188.128 135.352 188.848 135.592 189.712 135.816C190.576 136.008 191.504 136.232 192.496 136.488C193.52 136.712 194.448 137.08 195.28 137.592C196.112 138.104 196.752 138.808 197.2 139.704C197.68 140.568 197.824 141.736 197.632 143.208C197.44 144.712 196.944 145.96 196.144 146.952C195.344 147.912 194.384 148.696 193.264 149.304C192.176 149.88 190.976 150.28 189.664 150.504C188.352 150.76 187.072 150.888 185.824 150.888C184.192 150.888 182.576 150.664 180.976 150.216C179.376 149.736 178.08 148.904 177.088 147.72L182.128 142.872C182.704 143.704 183.36 144.344 184.096 144.792C184.864 145.208 185.792 145.416 186.88 145.416C187.712 145.416 188.48 145.304 189.184 145.08C189.888 144.824 190.288 144.376 190.384 143.736C190.48 143.128 190.24 142.68 189.664 142.392C189.12 142.072 188.4 141.816 187.504 141.624C186.64 141.4 185.696 141.176 184.672 140.952C183.68 140.696 182.752 140.328 181.888 139.848C181.056 139.368 180.4 138.696 179.92 137.832C179.44 136.936 179.312 135.752 179.536 134.28C179.728 132.904 180.176 131.72 180.88 130.728C181.584 129.736 182.432 128.92 183.424 128.28C184.448 127.64 185.568 127.176 186.784 126.888C188 126.568 189.216 126.408 190.432 126.408C191.968 126.408 193.488 126.632 194.992 127.08C196.496 127.528 197.712 128.328 198.64 129.48L193.648 133.848Z" fill="url(#paint4_linear)"/>
<path d="M102.629 137.832L96.389 126.984H104.885L107.762 132.653C107.762 132.653 111.893 126.984 121.013 126.984L111.893 137.832L119.141 150.312H110.645L106.613 142.536L100.085 150.312H91.685L102.629 137.832Z" fill="url(#paint5_linear)"/>
</g>
<defs>
<filter id="filter0_d" x="50" y="101" width="156.64" height="61.888" filterUnits="userSpaceOnUse" color-interpolation-filters="sRGB">
<feFlood flood-opacity="0" result="BackgroundImageFix"/>
<feColorMatrix in="SourceAlpha" type="matrix" values="0 0 0 0 0 0 0 0 0 0 0 0 0 0 0 0 0 0 127 0"/>
<feOffset dy="4"/>
<feGaussianBlur stdDeviation="4"/>
<feColorMatrix type="matrix" values="0 0 0 0 0 0 0 0 0 0 0 0 0 0 0 0 0 0 0.1 0"/>
<feBlend mode="normal" in2="BackgroundImageFix" result="effect1_dropShadow"/>
<feBlend mode="normal" in="SourceGraphic" in2="effect1_dropShadow" result="shape"/>
</filter>
<linearGradient id="paint0_linear" x1="256" y1="0" x2="0" y2="256" gradientUnits="userSpaceOnUse">
<stop stop-color="#0D25A3"/>
<stop offset="1" stop-color="#324FE8"/>
</linearGradient>
<linearGradient id="paint1_linear" x1="199" y1="105" x2="58" y2="151" gradientUnits="userSpaceOnUse">
<stop stop-color="#E7EAFF"/>
<stop offset="1" stop-color="white"/>
</linearGradient>
<linearGradient id="paint2_linear" x1="199" y1="105" x2="58" y2="151" gradientUnits="userSpaceOnUse">
<stop stop-color="#E7EAFF"/>
<stop offset="1" stop-color="white"/>
</linearGradient>
<linearGradient id="paint3_linear" x1="199" y1="105" x2="58" y2="151" gradientUnits="userSpaceOnUse">
<stop stop-color="#E7EAFF"/>
<stop offset="1" stop-color="white"/>
</linearGradient>
<linearGradient id="paint4_linear" x1="199" y1="105" x2="58" y2="151" gradientUnits="userSpaceOnUse">
<stop stop-color="#E7EAFF"/>
<stop offset="1" stop-color="white"/>
</linearGradient>
<linearGradient id="paint5_linear" x1="199" y1="105" x2="58" y2="151" gradientUnits="userSpaceOnUse">
<stop stop-color="#E7EAFF"/>
<stop offset="1" stop-color="white"/>
</linearGradient>
</defs>
</svg>
