<svg id="Layer_1" data-name="Layer 1" xmlns="http://www.w3.org/2000/svg" viewBox="0 0 128 128"><defs><style>.cls-1{fill:#4cabda;}.cls-2{fill:none;stroke:#fff;stroke-linecap:round;stroke-linejoin:round;stroke-width:1.53px;}</style></defs><title>Artboard 1</title><rect class="cls-1" width="128" height="128"/><path class="cls-2" d="M102.72,114.89c-17.6-6.41-21.8-14-21.8-25.6,0-7,3.94-4.68,6.3-17.39,1-5.29,5.73-.09,6.64-12.16,0-4.82-2.59-6-2.59-6,.92-5,3.11-23.19-3.26-30.59C83.72,18.15,77.2,18,75.64,18l-.46-.12c-1.78-3.11-12.55-7-26.82-1.24-14.79,6-14.59,19-12.84,29.64.57,3.93,1.2,7.38,1.2,7.38s-2.59,1.18-2.59,6c.91,12.07,5.67,6.87,6.65,12.16,2.35,12.75,6.3,10.46,6.3,17.39,0,11.59-4.19,19.19-21.81,25.6S4.7,127.84,4.7,132.29v15H123.3v-15C123.3,127.9,120.39,121.32,102.72,114.89Z"/></svg>